<?xml version="1.0" standalone="no"?>
<!DOCTYPE svg PUBLIC "-//W3C//DTD SVG 20010904//EN"
 "http://www.w3.org/TR/2001/REC-SVG-20010904/DTD/svg10.dtd">
<svg version="1.0" xmlns="http://www.w3.org/2000/svg"
 width="275.000000pt" height="160.000000pt" viewBox="0 0 275.000000 160.000000"
 preserveAspectRatio="xMidYMid meet">
<g transform="translate(0.000000,160.000000) scale(0.100000,-0.100000)"
fill="#000000" stroke="none">
<path d="M346 1589 c-73 -11 -140 -42 -165 -78 -33 -45 -34 -87 -7 -247 50
-295 29 -384 -99 -415 -27 -6 -56 -13 -62 -15 -7 -2 -13 -16 -13 -32 0 -27 3
-30 48 -36 102 -13 151 -77 152 -196 0 -36 -12 -142 -26 -235 l-27 -170 20
-46 c17 -39 30 -51 75 -73 53 -26 142 -46 206 -46 29 0 33 3 30 22 -2 17 -16
25 -68 39 -76 21 -110 53 -110 103 0 19 9 78 21 132 27 133 35 267 19 334 -15
63 -61 118 -120 145 -22 10 -40 21 -39 24 0 3 23 17 52 31 57 28 91 70 108
134 15 55 6 217 -20 340 -28 132 -27 159 7 196 21 24 42 34 92 44 54 10 66 16
68 34 3 20 -1 22 -40 21 -24 -1 -70 -5 -102 -10z"/>
<path d="M1240 1535 l0 -65 130 0 130 0 0 65 0 65 -130 0 -130 0 0 -65z"/>
<path d="M2262 1580 c3 -20 12 -25 68 -36 50 -10 71 -20 93 -44 33 -37 34 -64
6 -196 -26 -123 -35 -285 -20 -340 17 -64 51 -106 108 -134 29 -14 52 -28 52
-31 1 -3 -17 -14 -39 -24 -59 -27 -105 -82 -120 -145 -16 -67 -8 -201 19 -334
12 -54 21 -113 21 -132 0 -50 -34 -82 -110 -103 -52 -14 -66 -22 -68 -39 -3
-19 1 -22 30 -22 64 0 153 20 206 46 45 22 58 34 75 73 l20 46 -27 170 c-14
93 -26 199 -26 235 1 119 50 183 153 196 44 6 47 9 47 36 0 16 -6 30 -12 32
-7 2 -35 9 -63 15 -128 31 -149 120 -99 414 30 178 27 214 -22 262 -40 41
-102 61 -214 71 -81 7 -82 7 -78 -16z"/>
<path d="M1060 1422 c-49 -24 -70 -71 -70 -154 l0 -68 380 0 380 0 0 68 c0 83
-21 130 -70 154 -31 16 -68 18 -310 18 -242 0 -279 -2 -310 -18z"/>
<path d="M860 1010 c0 -77 4 -140 8 -140 4 0 120 45 257 100 137 55 255 100
261 100 7 0 117 -45 245 -100 129 -55 237 -100 241 -100 4 0 8 63 8 140 l0
140 -510 0 -510 0 0 -140z"/>
<path d="M1015 834 c-171 -69 -311 -127 -313 -129 -1 -1 9 -35 24 -76 102
-286 294 -474 549 -540 92 -23 138 -21 253 16 194 62 355 208 446 407 38 81
69 189 58 199 -15 13 -603 251 -609 246 -3 -3 -11 -133 -19 -289 -8 -156 -15
-290 -17 -298 -2 -8 -14 121 -27 288 -13 166 -26 302 -30 302 -3 0 -144 -57
-315 -126z"/>
</g>
</svg>
